# xmcd
#
# Track frame offsets: 
#        150
#        28304
#        45427
#        69074
#        90960
#        111465
#        125305
#        144774
#        161041
#        183551
#        205751
#        226656
#        242571
#        264487
#        284547
#        299356
#
# Disc length: 4372 seconds
#
# Revision: 0
# Processed by: cddbd v1.5PL3 Copyright (c) Steve Scherf et al.
# Submitted via: ExactAudioCopy v0.95a5
#
DISCID=db111210
DTITLE=Various Artist - 日剧情缘三
DYEAR=1900
DGENRE=
TTITLE0=平井坚/流星雨
TTITLE1=bj doc/超速游戏
TTITLE2=中岛美雪/美丽心情
TTITLE3=矢野真纪/两个冬天
TTITLE4=AS ONE/意犹未尽
TTITLE5=五岛良子/Open Up
TTITLE6=徐真英/数到三就不哭
TTITLE7=J/Cappuccino
TTITLE8=恰克飞鸟/相见不如怀念
TTITLE9=小林幸子/伤心太平洋
TTITLE10=KIRORO/很爱很爱你
TTITLE11=李真贤/独一无二
TTITLE12=米西亚/爱太急
TTITLE13=赵壮赫/中毒爱情
TTITLE14=李真贤/眉飞色舞
TTITLE15=玉置浩二/李香兰
EXTD=
EXTT0=
EXTT1=
EXTT2=
EXTT3=
EXTT4=
EXTT5=
EXTT6=
EXTT7=
EXTT8=
EXTT9=
EXTT10=
EXTT11=
EXTT12=
EXTT13=
EXTT14=
EXTT15=
PLAYORDER=
